<?xml version="1.0" encoding="UTF-8"?>
<svg width="512px" height="512px" viewBox="0 0 512 512" version="1.1" xmlns="http://www.w3.org/2000/svg" xmlns:xlink="http://www.w3.org/1999/xlink">
    <title>Construction</title>
    <g id="Construction" stroke="none" stroke-width="1" fill="none" fill-rule="evenodd">
        <circle id="Background" fill="#F5F5F5" cx="256" cy="256" r="256"></circle>
        <g id="Construction-Icon" transform="translate(106.000000, 106.000000)" fill-rule="nonzero">
            <path d="M150,0 C232.843,0 300,67.157 300,150 C300,232.843 232.843,300 150,300 C67.157,300 0,232.843 0,150 C0,67.157 67.157,0 150,0 Z" id="Circle" fill="#C20F1E" opacity="0.1"></path>
            <path d="M150,30 C216.274,30 270,83.726 270,150 C270,216.274 216.274,270 150,270 C83.726,270 30,216.274 30,150 C30,83.726 83.726,30 150,30 Z" id="Inner-Circle" stroke="#C20F1E" stroke-width="8"></path>
            <g id="Tools" transform="translate(75.000000, 75.000000)" fill="#2E8B57">
                <rect id="Rectangle" transform="translate(75.000000, 75.000000) rotate(45.000000) translate(-75.000000, -75.000000) " x="70" y="30" width="10" height="90" rx="5"></rect>
                <rect id="Rectangle" transform="translate(75.000000, 75.000000) rotate(-45.000000) translate(-75.000000, -75.000000) " x="70" y="30" width="10" height="90" rx="5"></rect>
                <circle id="Oval" cx="75" cy="75" r="15"></circle>
            </g>
            <path d="M60,200 L240,200 L240,220 C240,231.046 231.046,240 220,240 L80,240 C68.954,240 60,231.046 60,220 L60,200 Z" id="Base" fill="#C20F1E"></path>
            <path d="M90,140 L210,140 L225,200 L75,200 L90,140 Z" id="Cone" fill="#F5A623" stroke="#E49B23" stroke-width="4"></path>
            <rect id="Stripe1" fill="#FFFFFF" x="90" y="160" width="120" height="10"></rect>
            <rect id="Stripe2" fill="#FFFFFF" x="85" y="180" width="130" height="10"></rect>
        </g>
    </g>
</svg>
