<?xml version="1.0" encoding="UTF-8"?>
<svg width="48" height="48" viewBox="0 0 48 48" fill="none" xmlns="http://www.w3.org/2000/svg">
  <circle cx="24" cy="24" r="22" fill="#4b7f52" fill-opacity="0.9"/>
  <circle cx="24" cy="24" r="18" fill="#4b7f52"/>
  
  <!-- Leaf shape -->
  <path d="M24 12C19.5817 12 16 15.5817 16 20C16 24.4183 19.5817 28 24 28C28.4183 28 32 24.4183 32 20C32 15.5817 28.4183 12 24 12ZM24 26C20.6863 26 18 23.3137 18 20C18 16.6863 20.6863 14 24 14C27.3137 14 30 16.6863 30 20C30 23.3137 27.3137 26 24 26Z" fill="white"/>
  
  <!-- Stem -->
  <rect x="23" y="26" width="2" height="10" rx="1" fill="white"/>
  
  <!-- Roots -->
  <path d="M23 36H19C18.4477 36 18 36.4477 18 37C18 37.5523 18.4477 38 19 38H23V36Z" fill="white"/>
  <path d="M25 36H29C29.5523 36 30 36.4477 30 37C30 37.5523 29.5523 38 29 38H25V36Z" fill="white"/>
  
  <!-- Small leaves -->
  <circle cx="16" cy="20" r="2" fill="white" fill-opacity="0.7"/>
  <circle cx="32" cy="20" r="2" fill="white" fill-opacity="0.7"/>
  <circle cx="24" cy="12" r="2" fill="white" fill-opacity="0.7"/>
</svg>
